# xmcd CD database file
#
# Track frame offsets:
#	150
#	28096
#	62610
#	98956
#	138139
#	167467
#	198331
#	223009
#	248344
#	267304
#	294752
#
# Disc length: 4255 seconds
#
# Revision: 8
# Processed by: cddbd v1.5.2PL0 Copyright (c) Steve Scherf et al.
# Submitted via: CDex 1.51
#
DISCID=92109d0b
DTITLE=Agustín Carrillo - Calle de la Yedra
DYEAR=2007
DGENRE=Jazz
TTITLE0=How insensitive
TTITLE1=Every breath you take
TTITLE2=Dando vueltas
TTITLE3=Over the rainbow
TTITLE4=How insensitive
TTITLE5=Alone again
TTITLE6=I am confessing...
TTITLE7=Confirmation
TTITLE8=I could write a book
TTITLE9=Everything happens to me
TTITLE10=My funny valentine
EXTD=YEAR: 2007
EXTT0=
EXTT1=
EXTT2=
EXTT3=
EXTT4=
EXTT5=
EXTT6=
EXTT7=
EXTT8=
EXTT9=
EXTT10=
PLAYORDER=
